<?xml version="1.0" standalone="no"?>
<!DOCTYPE svg PUBLIC "-//W3C//DTD SVG 20010904//EN"
 "http://www.w3.org/TR/2001/REC-SVG-20010904/DTD/svg10.dtd">
<svg version="1.0" xmlns="http://www.w3.org/2000/svg"
 width="1135.000000pt" height="1120.000000pt" viewBox="0 0 1135.000000 1120.000000"
 preserveAspectRatio="xMidYMid meet">

<g transform="translate(0.000000,1120.000000) scale(0.100000,-0.100000)"
fill="#000000" stroke="none">
<path d="M5246 11139 c-14 -21 -22 -22 -169 -20 l-153 2 -12 -25 c-10 -23 -14
-24 -42 -15 -42 15 -166 5 -189 -15 -13 -11 -37 -16 -87 -16 -50 0 -81 -6
-109 -20 -24 -12 -59 -20 -89 -20 -33 0 -56 -6 -69 -17 -13 -12 -35 -18 -67
-18 -33 0 -57 -7 -77 -21 -20 -15 -38 -19 -65 -16 -33 4 -39 1 -48 -22 -11
-29 -18 -31 -55 -14 -22 10 -28 8 -48 -10 -16 -15 -36 -22 -64 -22 -27 0 -46
-6 -58 -20 -12 -13 -31 -20 -57 -20 -32 0 -40 -4 -48 -25 -9 -23 -13 -24 -53
-19 -38 5 -46 3 -59 -15 -11 -16 -24 -21 -48 -19 -21 2 -35 -3 -41 -15 -7 -11
-22 -17 -44 -17 -26 0 -39 -6 -51 -25 -12 -19 -22 -23 -40 -19 -19 5 -26 1
-35 -20 -12 -26 -18 -27 -66 -9 -8 3 -13 -4 -13 -19 0 -34 -6 -38 -42 -24 -27
10 -32 9 -45 -11 -10 -15 -26 -23 -43 -23 -15 0 -30 -6 -33 -14 -3 -8 -18 -16
-34 -18 -20 -2 -29 -9 -31 -25 -3 -19 -8 -21 -38 -16 -32 5 -34 4 -34 -22 0
-24 -3 -26 -25 -21 -20 5 -27 2 -37 -19 -9 -19 -16 -23 -35 -19 -18 5 -28 1
-40 -16 -11 -15 -22 -20 -37 -16 -15 4 -26 -1 -34 -14 -7 -11 -20 -20 -30 -20
-13 0 -18 -7 -18 -22 1 -19 -4 -23 -26 -20 -19 2 -30 -4 -38 -19 -9 -15 -18
-19 -34 -15 -24 6 -66 -30 -79 -66 -5 -13 -13 -16 -35 -12 -24 5 -32 0 -57
-36 -22 -32 -33 -40 -50 -36 -16 4 -32 -6 -66 -42 -25 -26 -48 -56 -52 -65 -6
-15 -10 -16 -28 -6 -20 10 -27 6 -66 -37 -24 -26 -49 -56 -54 -66 -8 -14 -14
-16 -29 -8 -15 8 -28 0 -78 -53 -92 -97 -112 -119 -112 -128 0 -5 -7 -9 -15
-9 -7 0 -18 -7 -23 -17 -6 -10 -16 -14 -28 -9 -14 5 -61 -36 -221 -196 -139
-139 -203 -210 -203 -224 0 -18 -4 -21 -21 -17 -17 5 -20 2 -17 -18 2 -18 -1
-23 -13 -21 -12 2 -15 -4 -12 -22 3 -16 0 -25 -10 -28 -9 -1 -45 -32 -82 -67
-55 -53 -65 -68 -61 -88 5 -16 2 -23 -8 -23 -8 0 -17 -9 -21 -19 -3 -11 -14
-23 -24 -26 -10 -3 -36 -25 -58 -50 -31 -34 -39 -49 -36 -69 3 -15 1 -26 -5
-26 -6 0 -24 -12 -41 -26 -25 -21 -29 -30 -24 -55 4 -22 2 -29 -11 -29 -9 0
-29 -14 -46 -31 -23 -24 -27 -35 -19 -45 12 -14 4 -34 -12 -34 -6 0 -23 -13
-39 -28 -21 -21 -27 -35 -23 -55 3 -15 1 -27 -5 -27 -22 0 -72 -52 -72 -75 0
-13 -9 -30 -20 -38 -16 -11 -19 -21 -14 -41 3 -14 2 -26 -3 -26 -5 0 -18 -6
-28 -14 -16 -12 -17 -16 -6 -29 15 -19 7 -37 -17 -38 -22 0 -66 -55 -59 -73 3
-8 -5 -24 -19 -37 -15 -14 -22 -29 -19 -40 4 -12 -2 -23 -18 -34 -17 -11 -23
-22 -20 -36 4 -13 -2 -25 -16 -35 -11 -8 -21 -25 -21 -38 0 -13 -9 -31 -20
-41 -22 -20 -26 -55 -8 -73 14 -14 3 -28 -27 -34 -20 -4 -22 -10 -10 -40 5
-13 0 -21 -19 -29 -19 -9 -26 -20 -26 -40 0 -19 -7 -32 -21 -40 -19 -9 -21
-17 -15 -55 5 -41 4 -46 -20 -56 -26 -12 -27 -18 -9 -75 5 -17 1 -24 -22 -35
-15 -8 -27 -21 -25 -28 15 -67 15 -69 -13 -80 -24 -9 -26 -13 -20 -49 5 -34 3
-41 -19 -59 -26 -20 -34 -56 -16 -67 18 -11 10 -35 -14 -45 -30 -11 -35 -24
-28 -83 4 -42 2 -50 -18 -64 -20 -14 -22 -22 -17 -64 5 -42 3 -53 -20 -79 -25
-31 -28 -67 -8 -126 5 -16 -2 -31 -26 -58 -29 -34 -31 -40 -26 -88 4 -31 2
-57 -4 -64 -7 -9 -7 -19 2 -35 10 -20 9 -25 -11 -41 -20 -16 -22 -25 -19 -110
2 -55 -1 -101 -8 -113 -6 -11 -8 -34 -6 -51 3 -18 -2 -44 -11 -62 -14 -27 -16
-88 -16 -474 0 -383 2 -447 15 -465 11 -15 15 -43 14 -86 -1 -36 2 -71 7 -78
4 -8 7 -48 5 -89 -3 -74 -2 -76 24 -88 27 -12 27 -13 10 -32 -17 -19 -17 -21
-1 -39 14 -15 15 -24 7 -40 -21 -38 -13 -80 20 -111 27 -24 30 -33 24 -57 -4
-15 -9 -47 -12 -70 -5 -39 -3 -44 22 -55 26 -12 27 -14 20 -75 -6 -61 -6 -63
19 -74 29 -14 32 -35 14 -87 -13 -36 -13 -37 38 -68 16 -9 16 -14 5 -43 -13
-30 -12 -34 13 -60 23 -24 25 -32 20 -74 -6 -42 -4 -49 18 -67 18 -14 24 -26
21 -43 -4 -18 2 -26 22 -35 27 -13 29 -25 9 -75 -4 -11 5 -21 25 -32 26 -13
30 -19 21 -35 -16 -30 -12 -58 12 -74 16 -11 22 -25 20 -46 -2 -24 2 -30 18
-30 24 0 37 -27 21 -43 -18 -18 -13 -44 15 -66 18 -14 24 -26 19 -40 -4 -14 0
-24 14 -33 13 -8 21 -23 21 -40 0 -17 8 -31 21 -38 15 -9 19 -18 15 -35 -4
-17 0 -27 19 -39 19 -12 24 -22 20 -39 -5 -18 -1 -26 18 -34 19 -9 23 -17 20
-36 -4 -18 1 -28 16 -36 13 -8 21 -22 21 -39 0 -16 8 -32 20 -40 11 -7 20 -23
20 -36 0 -23 50 -76 72 -76 5 0 7 -12 3 -29 -5 -24 -2 -32 15 -41 14 -8 20
-18 17 -30 -6 -24 17 -56 53 -75 25 -13 29 -20 24 -43 -5 -23 0 -30 36 -52 35
-21 40 -29 36 -52 -5 -27 16 -52 70 -84 16 -9 17 -13 5 -27 -11 -14 -6 -23 39
-67 28 -27 58 -50 66 -50 17 0 19 -21 3 -37 -8 -8 2 -23 36 -54 26 -24 56 -50
66 -57 11 -7 19 -19 19 -26 0 -8 6 -16 14 -19 8 -3 12 -14 10 -24 -4 -13 19
-42 80 -101 47 -45 88 -82 91 -82 13 0 65 -59 65 -74 0 -9 5 -16 10 -16 6 0
10 -8 8 -17 -2 -12 4 -19 19 -21 13 -2 20 -8 17 -17 -5 -13 39 -65 56 -65 6 0
10 -7 10 -16 0 -12 7 -15 26 -11 23 4 25 2 19 -20 -5 -21 -3 -24 17 -21 17 2
22 -1 20 -15 -2 -14 2 -16 22 -11 20 5 26 2 26 -10 0 -9 6 -16 13 -16 6 0 32
-24 57 -52 25 -29 74 -83 109 -120 53 -56 68 -67 87 -62 17 4 26 1 30 -10 3
-9 13 -16 20 -16 8 0 18 -8 21 -17 4 -10 26 -39 50 -64 36 -37 49 -45 70 -41
22 4 25 2 21 -15 -4 -15 -1 -19 11 -16 11 3 28 -11 49 -41 34 -47 46 -54 57
-36 10 15 25 12 32 -7 11 -30 60 -73 82 -73 12 0 21 -6 21 -15 0 -8 9 -15 20
-15 12 0 25 -10 32 -25 6 -14 20 -25 31 -25 20 0 109 84 121 115 4 12 13 15
30 11 18 -4 29 -1 40 15 10 15 20 19 35 14 15 -4 24 1 37 20 12 18 22 24 36
19 22 -7 53 17 74 59 12 22 18 26 33 18 14 -8 25 -4 48 17 16 15 33 35 36 45
5 15 13 17 42 11 31 -6 35 -4 35 16 0 19 4 21 25 16 21 -5 27 -2 37 19 9 21
17 25 36 20 18 -4 28 0 39 15 8 11 24 20 37 20 13 0 31 9 41 20 10 11 23 20
29 19 25 -3 35 2 41 22 6 17 13 20 35 16 22 -5 29 -1 39 19 8 19 16 23 35 18
18 -4 28 0 38 15 8 13 23 21 40 21 17 0 31 8 38 20 7 14 17 19 29 15 11 -3 25
3 36 15 10 11 28 20 40 20 12 0 30 9 40 20 10 12 24 19 31 16 7 -3 32 5 56 17
24 11 48 20 55 19 7 -2 29 7 50 18 21 11 48 20 61 20 13 0 36 9 50 21 22 17
35 19 73 14 44 -6 48 -5 61 21 7 15 16 26 21 26 4 -1 23 -4 43 -8 32 -6 39 -3
59 22 22 27 24 28 64 16 47 -15 58 -11 72 25 7 19 15 24 32 20 93 -21 82 -23
125 28 10 11 18 13 32 5 10 -5 77 -10 148 -10 l129 0 12 26 c12 26 13 27 79
19 37 -4 87 -8 112 -9 l45 -1 3 1690 2 1690 -146 -3 c-140 -4 -147 -3 -170 19
l-24 22 0 282 c0 281 0 282 23 303 l23 22 737 0 c519 0 738 -3 743 -11 3 -6 1
-16 -5 -22 -8 -8 -11 -552 -11 -1997 0 -1816 1 -1988 16 -2009 14 -19 22 -22
53 -17 127 20 118 21 136 -14 18 -35 9 -34 136 -14 33 5 38 3 51 -23 15 -30
30 -33 100 -19 35 8 38 6 48 -19 10 -27 12 -28 74 -21 61 6 63 5 75 -20 11
-25 14 -26 70 -19 53 6 60 5 70 -13 15 -27 45 -36 71 -20 18 12 23 10 43 -16
20 -25 28 -28 57 -23 27 6 37 3 56 -18 20 -22 30 -25 58 -20 29 6 36 3 46 -15
10 -19 18 -22 57 -17 40 4 46 2 55 -19 12 -25 37 -31 67 -15 19 11 31 5 47
-24 6 -11 21 -20 33 -20 13 0 28 -8 36 -18 14 -19 33 -22 77 -11 23 5 28 3 34
-20 5 -23 10 -26 34 -21 21 5 30 1 43 -19 11 -16 23 -23 36 -19 13 3 23 -2 30
-16 7 -12 22 -21 35 -21 13 0 31 -9 41 -20 10 -11 28 -20 40 -20 12 0 30 -9
40 -20 10 -12 25 -18 32 -16 8 3 21 -3 30 -14 10 -11 29 -20 43 -20 14 0 31
-9 38 -20 9 -15 19 -19 37 -14 20 5 27 1 36 -19 9 -21 17 -25 38 -21 21 4 31
-2 55 -36 22 -29 37 -40 56 -40 15 0 30 -8 38 -21 9 -14 19 -18 33 -14 14 5
27 -1 44 -19 30 -33 48 -33 69 -1 10 15 26 25 39 25 13 0 38 15 57 35 19 19
40 35 47 35 22 0 70 40 99 82 22 31 31 37 51 32 20 -5 31 1 59 32 19 22 42 49
51 61 11 16 22 21 37 17 18 -4 39 12 114 91 65 68 98 95 112 93 28 -4 520 487
520 519 0 15 31 53 96 115 68 65 94 97 91 110 -4 13 13 34 54 70 46 39 59 57
57 75 -2 17 9 33 42 62 39 33 43 41 31 54 -14 17 -7 37 12 37 7 0 24 11 39 25
23 19 27 29 22 54 -5 24 -3 31 9 31 28 0 69 50 63 76 -5 18 0 26 21 38 38 19
67 52 60 70 -3 8 3 22 14 32 14 12 18 26 14 41 -4 18 0 26 20 35 22 10 25 16
20 40 -4 16 -2 28 3 28 21 0 72 53 72 74 0 13 9 31 20 41 11 10 20 28 20 40 0
12 9 30 20 40 12 10 19 24 16 31 -3 7 6 24 20 39 25 27 31 59 14 70 -17 11
-11 25 15 37 22 10 25 16 20 40 -6 24 -3 29 19 38 18 6 26 17 26 33 0 13 9 32
21 43 20 18 21 37 4 76 -5 13 0 21 19 29 15 7 26 20 26 31 0 10 10 32 21 48
16 20 20 37 16 58 -5 23 -1 34 19 51 22 19 25 28 19 58 -5 29 -3 38 14 50 15
10 21 25 21 53 0 22 9 56 21 77 16 28 19 46 15 78 -6 38 -4 43 20 54 25 11 26
14 20 66 -5 48 -4 55 15 65 18 10 20 19 17 76 -3 59 -1 67 21 83 22 17 24 23
19 94 -5 73 -4 78 19 93 24 15 24 18 19 108 -5 90 -5 93 20 115 l25 22 -6 132
c-3 73 -8 147 -11 165 -4 23 -1 34 11 38 13 5 15 61 15 470 0 337 -3 464 -11
464 -8 0 -10 41 -8 143 4 141 4 142 -18 145 -22 3 -23 6 -20 110 2 105 2 106
-23 112 -15 4 -23 12 -20 21 2 8 6 44 8 80 3 60 2 66 -20 76 -21 9 -23 16 -23
79 0 64 -2 69 -22 72 -24 3 -32 35 -13 47 19 12 11 65 -15 91 -21 21 -24 31
-19 64 6 36 4 40 -21 52 -27 12 -29 26 -10 70 5 13 -1 22 -24 35 -24 14 -30
23 -26 38 18 58 18 64 -9 76 -25 12 -26 16 -20 55 5 37 3 44 -19 58 -17 12
-23 23 -20 39 3 17 -2 26 -21 35 -29 13 -31 20 -14 57 10 22 8 28 -10 48 -12
13 -22 33 -22 45 0 15 -9 26 -26 32 -22 9 -25 14 -19 38 5 24 2 30 -20 40 -26
12 -32 26 -15 37 18 11 11 24 -16 31 -22 6 -25 11 -20 36 5 24 2 30 -20 38
-22 9 -25 14 -19 38 5 24 2 30 -20 40 -20 9 -24 17 -19 36 4 19 1 27 -16 36
-16 9 -20 18 -16 36 5 17 1 27 -14 36 -11 7 -20 24 -20 38 -1 18 -14 35 -45
59 -40 29 -43 35 -33 54 8 16 8 22 -1 25 -22 7 -39 32 -34 50 5 19 -46 72 -69
72 -6 0 -8 11 -5 26 5 26 -12 49 -60 81 -16 11 -21 22 -17 38 4 17 -5 32 -46
68 -29 26 -57 47 -62 47 -5 0 -7 12 -3 29 5 25 0 34 -53 79 -48 42 -58 56 -55
75 4 18 -4 31 -29 52 -97 81 -193 181 -193 203 0 33 -380 412 -415 413 -19 0
-47 25 -110 95 -76 85 -88 94 -112 90 -16 -3 -28 -2 -28 3 0 5 -31 41 -68 80
-46 48 -74 70 -84 66 -10 -4 -35 13 -71 49 -31 31 -64 56 -74 56 -9 0 -34 18
-54 40 -21 23 -46 40 -58 40 -12 0 -37 16 -57 35 -19 19 -43 35 -53 35 -10 0
-26 9 -37 21 -11 12 -26 18 -38 15 -14 -4 -30 7 -58 39 -23 26 -45 42 -53 39
-7 -3 -22 4 -32 15 -10 12 -29 21 -45 21 -17 0 -31 7 -38 20 -8 15 -17 19 -35
14 -20 -5 -27 -1 -36 19 -10 21 -17 25 -38 21 -22 -5 -29 -1 -39 21 -10 22
-15 24 -32 15 -16 -9 -22 -6 -36 16 -13 19 -23 24 -41 19 -18 -4 -26 0 -35 20
-9 21 -16 25 -38 20 -21 -5 -29 -1 -37 18 -9 19 -17 23 -36 20 -18 -4 -28 1
-36 16 -7 12 -22 21 -35 21 -13 0 -31 9 -42 21 -15 17 -26 20 -60 14 -37 -5
-43 -3 -49 15 -6 19 -17 25 -39 21 -5 -1 -19 8 -32 20 -18 17 -31 21 -59 16
-30 -5 -38 -2 -52 20 -15 22 -21 25 -59 19 -37 -5 -44 -3 -49 14 -8 24 -46 35
-72 21 -16 -8 -24 -4 -45 20 -23 26 -29 28 -54 19 -23 -9 -31 -7 -50 11 -16
15 -41 24 -76 27 -30 3 -64 14 -80 25 -16 12 -35 18 -48 14 -13 -3 -39 3 -62
15 -32 17 -51 20 -105 15 -58 -4 -66 -3 -70 14 -7 25 -41 33 -113 26 -52 -4
-60 -3 -73 16 -13 20 -24 22 -112 23 -79 1 -101 4 -110 18 -11 14 -36 16 -182
16 -162 0 -171 1 -176 20 -5 20 -14 20 -440 20 -434 0 -436 0 -451 -21z m459
-2153 c171 1 345 4 388 6 84 4 86 3 103 -27 14 -25 45 -30 98 -16 23 6 59 12
81 13 35 3 40 0 43 -20 5 -34 33 -44 80 -28 43 15 53 12 71 -22 13 -25 16 -25
109 -6 29 6 32 4 32 -19 0 -19 7 -27 26 -31 15 -4 32 -2 37 3 18 18 42 12 52
-11 10 -22 44 -29 84 -17 9 2 17 -6 21 -21 7 -26 18 -28 78 -15 31 7 32 6 32
-25 0 -27 3 -31 18 -25 44 18 52 17 62 -9 8 -22 14 -25 34 -20 18 4 27 1 36
-15 7 -14 21 -21 40 -21 19 0 30 -5 30 -14 0 -16 24 -28 43 -20 7 2 23 -6 34
-20 15 -17 28 -23 42 -19 14 4 23 -1 28 -13 9 -27 24 -34 45 -23 15 8 20 5 30
-16 7 -17 19 -25 35 -25 16 0 38 -15 61 -39 30 -32 40 -38 55 -30 19 11 37 4
37 -14 0 -7 14 -25 30 -41 24 -24 32 -27 44 -17 15 13 36 7 36 -10 0 -9 11
-24 61 -78 23 -26 32 -30 47 -22 17 9 26 2 63 -42 47 -55 437 -445 488 -487
16 -14 30 -34 30 -45 2 -33 58 -104 94 -118 11 -4 17 -18 17 -36 0 -23 11 -38
49 -70 27 -23 54 -41 60 -41 14 0 15 -27 1 -35 -17 -11 -11 -25 15 -35 20 -8
24 -14 19 -34 -6 -26 22 -61 64 -77 23 -9 29 -24 12 -34 -17 -10 -12 -45 5
-39 24 10 47 -14 35 -36 -16 -30 -12 -40 16 -40 20 0 25 -4 21 -17 -2 -10 -6
-24 -8 -32 -2 -8 6 -17 21 -21 25 -6 27 -15 14 -58 -5 -19 -3 -22 17 -20 23 3
24 0 21 -49 -3 -45 -1 -52 18 -58 17 -5 20 -13 18 -38 -2 -25 1 -32 17 -35 31
-6 37 -16 25 -47 -14 -36 -4 -65 21 -65 17 0 19 -6 17 -52 -3 -49 -1 -53 21
-56 19 -3 22 -8 17 -30 -20 -87 -19 -90 10 -117 26 -24 27 -29 18 -64 -13 -46
-6 -68 26 -85 14 -7 23 -19 21 -27 -10 -35 -17 -111 -13 -144 3 -27 10 -39 28
-45 23 -9 23 -12 16 -72 -8 -70 -10 -655 -2 -787 4 -80 3 -84 -18 -92 -12 -5
-23 -16 -23 -26 -3 -32 1 -117 7 -155 5 -32 3 -37 -18 -40 -21 -3 -23 -8 -23
-68 0 -55 -4 -69 -24 -89 -23 -23 -24 -42 -6 -106 4 -15 -2 -24 -25 -37 -32
-18 -37 -36 -17 -69 10 -17 9 -23 -1 -26 -28 -10 -44 -36 -38 -62 12 -50 11
-56 -11 -59 -24 -3 -27 -10 -23 -49 1 -13 -3 -23 -9 -23 -6 0 -18 -11 -27 -26
-13 -19 -14 -28 -5 -37 19 -19 13 -45 -11 -49 -19 -2 -22 -8 -20 -33 2 -23 -3
-32 -20 -40 -17 -8 -22 -17 -20 -37 2 -20 -3 -28 -19 -33 -17 -6 -20 -12 -15
-36 5 -25 2 -31 -20 -39 -17 -7 -24 -15 -20 -25 3 -8 9 -22 12 -30 4 -11 -2
-17 -25 -21 -31 -7 -39 -18 -21 -29 15 -9 12 -45 -3 -45 -7 0 -27 -13 -44 -29
-23 -21 -30 -35 -26 -50 4 -16 -1 -23 -20 -30 -34 -13 -60 -54 -52 -81 4 -14
1 -22 -10 -26 -29 -12 -81 -66 -67 -71 15 -6 16 -43 0 -43 -6 0 -18 -7 -27
-15 -127 -117 -151 -143 -151 -164 0 -17 -43 -66 -151 -175 -84 -83 -158 -161
-167 -174 -11 -18 -21 -21 -46 -18 -32 6 -39 0 -135 -122 -20 -25 -28 -29 -44
-21 -15 9 -24 6 -44 -13 -14 -12 -29 -33 -34 -46 -7 -17 -14 -21 -32 -17 -25
7 -45 -7 -74 -52 -11 -16 -23 -23 -35 -20 -22 6 -66 -27 -79 -60 -5 -14 -15
-23 -22 -20 -6 3 -19 8 -28 12 -12 4 -18 -1 -23 -20 -6 -23 -10 -26 -36 -20
-26 6 -31 3 -40 -20 -8 -22 -13 -24 -30 -15 -16 9 -22 6 -36 -15 -12 -18 -24
-25 -43 -23 -19 2 -29 -3 -36 -19 -10 -24 -29 -30 -40 -13 -10 17 -35 -2 -35
-27 0 -26 -7 -27 -52 -8 -13 5 -17 0 -20 -22 -3 -29 -3 -29 -73 -21 -25 2 -31
-1 -33 -19 -4 -25 -30 -31 -49 -12 -16 16 -53 1 -63 -27 -15 -39 -53 -29 -65
18 -4 15 -2 29 4 32 15 10 15 188 0 203 -7 7 -9 23 -5 37 5 19 13 25 39 28 24
2 33 8 35 26 3 23 35 31 47 12 11 -19 44 -10 61 15 14 21 22 25 45 20 23 -5
28 -3 31 17 3 20 9 23 44 23 25 0 47 7 58 17 10 10 28 18 40 18 26 0 76 42 76
64 0 21 19 30 35 16 20 -17 45 -5 45 20 0 19 4 21 29 15 24 -5 33 -2 43 14 8
13 23 21 39 21 26 0 61 30 72 62 4 11 15 17 30 16 26 -2 74 29 82 55 4 9 10
17 15 17 5 0 12 9 15 21 6 16 12 19 33 14 22 -5 33 2 86 60 77 84 371 376 436
433 41 37 48 49 44 70 -4 23 3 32 43 61 62 45 74 60 67 86 -4 16 5 28 40 54
40 28 45 35 36 52 -12 22 -6 39 15 39 18 0 67 60 61 75 -2 7 7 22 20 34 20 17
23 25 14 41 -9 17 -7 22 15 30 21 8 25 15 23 42 -3 28 1 34 20 36 20 3 22 7
16 38 -5 29 -4 34 14 34 21 0 36 25 26 41 -3 6 6 21 21 35 16 15 25 31 21 40
-20 53 -19 64 9 64 25 0 27 3 22 30 -5 23 -1 35 19 55 21 21 25 32 20 58 -5
25 -2 35 15 48 23 17 28 51 15 105 -7 28 -5 32 18 38 30 7 43 44 27 74 -19 36
-14 69 13 76 27 7 38 44 26 85 -5 14 -11 47 -14 73 -5 44 -4 48 22 60 26 13
27 15 24 88 -4 97 -4 603 0 700 3 71 2 75 -19 78 -21 3 -23 9 -23 55 0 29 4
67 10 86 11 40 -2 71 -30 71 -23 0 -27 32 -10 89 11 39 3 56 -25 56 -21 0 -24
24 -10 92 6 27 3 34 -20 49 -23 15 -25 22 -20 54 6 33 3 40 -21 59 -25 19 -27
25 -16 42 13 21 10 31 -20 65 -11 12 -19 28 -18 35 4 28 0 38 -21 44 -17 6
-20 12 -15 36 6 30 5 30 -43 45 -11 3 -10 9 2 28 18 26 13 36 -15 36 -24 0
-34 26 -18 45 15 18 5 35 -20 35 -24 0 -35 17 -21 33 12 15 3 31 -23 40 -12 5
-17 14 -13 27 6 22 -38 80 -60 80 -19 0 -25 18 -14 39 9 16 5 23 -24 45 -18
14 -39 26 -45 26 -8 0 -10 11 -6 33 5 29 2 36 -24 55 -16 12 -32 22 -36 22 -4
0 -18 12 -31 26 -17 19 -23 34 -19 50 5 18 -3 31 -35 61 -22 21 -48 42 -57 47
-20 12 -308 303 -383 387 -49 55 -60 63 -87 61 -20 -1 -32 2 -32 10 0 13 -35
52 -78 87 -13 11 -31 17 -42 14 -13 -4 -22 1 -26 13 -10 27 -55 63 -79 64 -11
0 -26 9 -33 21 -10 16 -19 19 -43 14 -25 -6 -29 -4 -29 15 0 25 -25 37 -45 20
-16 -14 -35 -5 -35 16 0 20 -49 64 -71 64 -11 0 -29 10 -40 21 -16 16 -29 20
-56 16 -30 -5 -35 -3 -44 20 -6 17 -15 24 -27 20 -43 -12 -47 -11 -50 11 -3
17 -10 22 -31 22 -16 0 -36 9 -47 21 -16 17 -26 20 -61 15 -34 -4 -43 -2 -43
9 0 22 -36 37 -74 29 -29 -5 -35 -3 -41 15 -9 28 -48 36 -97 20 -33 -11 -41
-10 -48 1 -4 7 -6 20 -2 28 5 13 -5 14 -71 9 -73 -6 -76 -6 -79 16 -3 21 -8
22 -85 22 -68 0 -84 3 -96 19 -13 17 -38 18 -502 18 l-488 1 -14 -27 c-9 -18
-20 -25 -31 -22 -9 3 -50 8 -91 12 -73 7 -75 6 -97 -21 -21 -27 -25 -28 -61
-17 -37 11 -83 7 -83 -7 0 -4 -6 -15 -12 -24 -11 -14 -19 -15 -46 -8 -39 12
-60 6 -64 -17 -3 -14 -15 -17 -66 -17 -51 0 -65 -4 -74 -18 -6 -12 -19 -17
-36 -15 -22 2 -28 -2 -30 -20 -4 -29 -24 -37 -52 -22 -27 14 -57 5 -65 -21 -6
-16 -12 -19 -36 -14 -25 6 -30 3 -39 -20 -8 -20 -16 -25 -37 -23 -23 2 -29 -1
-31 -20 -3 -21 -7 -23 -37 -18 -29 6 -33 4 -39 -19 -6 -25 -29 -34 -41 -15
-11 17 -25 11 -35 -15 -8 -20 -14 -24 -33 -20 -18 5 -28 0 -40 -18 -10 -15
-25 -24 -41 -24 -24 0 -76 -45 -76 -66 0 -5 -11 -6 -24 -3 -20 5 -32 -1 -55
-26 -17 -18 -31 -36 -31 -40 0 -5 -13 -8 -28 -8 -22 0 -40 -13 -81 -59 -38
-43 -57 -57 -72 -54 -14 4 -36 -12 -81 -61 -60 -62 -191 -193 -339 -337 -57
-56 -66 -69 -62 -92 3 -15 1 -27 -4 -27 -6 0 -22 -11 -36 -24 -14 -13 -36 -31
-48 -39 -13 -10 -22 -27 -23 -48 -1 -19 -8 -34 -16 -37 -27 -8 -60 -55 -60
-84 0 -15 -5 -28 -12 -28 -22 0 -58 -43 -58 -71 0 -18 -9 -32 -25 -43 -19 -13
-24 -22 -19 -40 4 -18 1 -26 -14 -30 -23 -8 -36 -32 -22 -41 17 -11 11 -25
-16 -35 -22 -9 -25 -14 -19 -40 6 -25 4 -30 -13 -30 -23 0 -33 -19 -25 -48 3
-14 -1 -22 -16 -27 -16 -5 -21 -15 -21 -39 0 -21 -8 -40 -21 -52 -16 -14 -20
-26 -15 -52 4 -28 2 -35 -14 -39 -23 -6 -37 -58 -20 -78 14 -16 5 -35 -16 -35
-18 0 -34 -41 -27 -69 4 -15 -2 -29 -17 -43 -20 -19 -22 -28 -17 -85 6 -57 4
-63 -12 -63 -11 0 -21 -9 -25 -22 -10 -38 -7 -113 5 -125 15 -15 3 -33 -22
-33 -16 0 -20 -7 -19 -32 0 -18 -1 -67 -1 -108 -1 -41 2 -83 6 -92 5 -13 0
-20 -19 -28 l-26 -10 2 -292 3 -293 23 -3 c19 -3 23 -8 17 -25 -4 -12 -6 -56
-6 -97 1 -41 1 -87 1 -102 0 -22 4 -28 20 -28 24 0 37 -25 22 -43 -5 -6 -10
-36 -11 -65 0 -44 4 -57 23 -75 20 -19 23 -29 18 -78 -4 -50 -2 -58 18 -72 17
-12 21 -22 16 -41 -8 -31 9 -76 28 -76 11 0 14 -12 13 -46 -2 -37 2 -48 23
-64 20 -15 22 -21 11 -34 -17 -20 -6 -36 25 -36 17 0 24 -5 24 -19 0 -11 -4
-23 -10 -26 -15 -10 -12 -21 16 -54 15 -18 23 -38 20 -46 -3 -9 5 -24 19 -37
14 -12 23 -29 20 -37 -6 -20 4 -35 28 -44 12 -5 16 -13 13 -25 -8 -24 26 -68
59 -76 25 -6 34 -29 15 -41 -18 -11 -10 -34 13 -37 17 -2 22 -9 22 -34 0 -32
35 -73 62 -74 19 0 26 -20 12 -37 -12 -13 -8 -21 30 -55 29 -25 45 -48 46 -64
0 -16 16 -40 43 -65 24 -21 45 -39 48 -39 2 0 25 -20 50 -45 33 -34 44 -51 39
-65 -5 -16 20 -46 117 -145 68 -69 128 -125 134 -125 39 0 94 -45 177 -145 15
-18 35 -30 51 -30 17 -1 39 -16 64 -44 35 -39 41 -42 61 -32 19 10 22 9 31
-14 5 -14 13 -25 18 -25 5 0 14 -11 20 -25 10 -22 15 -24 32 -15 22 12 40 6
40 -13 0 -21 47 -57 74 -57 15 0 30 -8 36 -21 9 -15 18 -19 35 -15 17 4 27 0
39 -19 12 -19 22 -24 39 -20 18 5 26 0 35 -20 9 -20 17 -24 36 -19 18 4 27 1
36 -15 6 -12 21 -21 34 -21 13 0 31 -9 42 -21 15 -17 26 -19 59 -15 35 6 41 4
50 -16 9 -20 16 -23 58 -20 41 3 47 1 47 -16 0 -27 26 -35 66 -22 40 13 58 5
50 -22 -4 -19 -1 -20 44 -15 44 5 50 3 64 -19 17 -25 54 -32 73 -13 17 17 47
3 38 -19 -4 -9 -6 -79 -5 -154 l1 -138 -46 0 c-25 0 -46 5 -46 10 -1 6 -2 14
-3 20 -3 25 -24 32 -62 20 -29 -10 -39 -10 -42 -1 -10 29 -36 43 -71 37 -76
-12 -76 -12 -79 11 -4 27 -34 38 -61 24 -29 -16 -51 -13 -51 7 0 9 -5 24 -10
32 -7 12 -12 12 -22 2 -18 -18 -36 -15 -43 8 -7 24 -52 37 -68 21 -19 -19 -35
-12 -46 19 -10 30 -25 38 -36 20 -11 -17 -25 -11 -35 16 -9 21 -15 25 -38 20
-22 -5 -29 -2 -37 16 -7 17 -17 22 -37 20 -20 -2 -28 2 -33 18 -6 18 -12 21
-36 16 -25 -5 -31 -2 -39 20 -9 22 -14 25 -40 19 -23 -5 -30 -3 -30 8 0 20
-57 67 -80 67 -11 0 -24 9 -30 21 -9 16 -17 19 -41 14 -22 -5 -31 -3 -35 10
-4 10 -17 28 -30 42 -17 18 -28 22 -48 17 -21 -5 -27 -2 -35 17 -5 13 -27 41
-49 62 -31 31 -44 37 -65 32 -20 -5 -26 -2 -32 14 -3 12 -10 21 -15 21 -5 0
-15 11 -22 24 -22 42 -128 127 -149 121 -12 -4 -22 1 -31 14 -7 12 -16 21 -20
21 -11 0 -58 49 -58 60 0 6 -3 10 -7 10 -5 0 -39 29 -76 65 -61 57 -67 67 -57
85 10 18 6 26 -27 56 -70 64 -106 94 -116 94 -5 0 -7 12 -4 26 3 19 -4 35 -32
66 -20 22 -47 44 -60 49 -19 8 -22 14 -17 35 5 20 1 33 -15 50 -12 13 -28 24
-35 24 -18 0 -37 27 -24 35 5 3 10 10 10 15 0 13 -53 60 -68 60 -18 0 -26 28
-12 45 14 17 5 35 -19 35 -25 0 -32 10 -20 31 7 14 5 23 -11 39 -11 11 -20 29
-20 40 0 10 -9 28 -21 39 -12 11 -18 24 -15 29 3 5 -4 22 -17 38 -12 16 -20
36 -19 46 2 12 -6 22 -23 28 -23 9 -26 14 -20 39 5 25 3 29 -19 35 -26 6 -35
29 -16 41 18 11 11 45 -14 68 -18 17 -23 30 -19 50 5 23 2 27 -19 27 -35 0
-39 8 -22 48 18 45 12 62 -22 62 -24 0 -26 3 -20 28 20 77 19 81 -11 108 -29
25 -29 28 -18 62 16 45 10 62 -20 62 -32 0 -35 8 -23 60 5 25 11 61 11 79 2
30 -2 36 -23 41 -23 6 -25 10 -23 61 1 29 5 82 8 116 9 76 2 107 -26 119 -20
9 -21 14 -21 329 0 304 1 320 18 323 11 2 23 7 27 12 12 11 10 121 -2 133 -6
6 -11 32 -11 58 0 41 3 49 23 55 40 12 47 48 23 119 -15 42 -7 65 21 65 23 0
32 41 17 84 -19 52 -18 52 16 65 23 7 30 16 30 35 0 14 -4 28 -10 31 -19 12
-10 35 15 41 28 7 44 49 26 67 -18 18 -13 37 14 47 27 10 34 47 14 67 -18 18
-2 43 26 43 24 0 25 2 19 35 -4 24 -2 35 5 35 19 0 38 23 34 41 -3 10 5 27 16
38 23 23 27 51 10 68 -18 18 -2 46 21 40 25 -6 36 9 20 28 -15 18 -6 45 14 45
19 0 66 57 60 73 -2 7 7 23 21 35 21 18 24 26 15 42 -9 17 -7 22 15 30 23 9
26 14 20 40 -5 24 -3 32 12 37 10 4 23 11 28 15 6 5 19 15 30 22 16 12 17 16
6 30 -15 18 -8 46 12 46 7 0 34 21 61 46 33 33 44 50 37 57 -15 15 -14 37 2
37 6 0 34 19 60 41 41 35 47 46 42 68 -5 23 7 37 96 121 56 52 120 115 143
138 168 178 175 184 200 178 19 -5 31 3 63 38 22 24 43 52 47 61 4 12 13 15
29 11 19 -4 34 4 70 41 26 26 47 53 47 61 0 11 8 13 33 8 28 -5 36 -2 53 21
11 16 23 36 27 46 7 19 22 22 32 7 11 -18 34 -10 37 13 2 18 9 22 36 22 21 1
37 7 43 18 6 9 20 17 32 17 23 1 77 42 77 59 0 5 15 11 33 13 25 2 33 8 35 26
3 21 7 22 46 17 32 -5 45 -3 55 9 8 9 24 16 37 16 23 0 54 23 54 40 0 5 13 7
30 4 25 -6 31 -3 40 20 11 29 13 30 42 15 25 -14 68 3 68 26 0 17 35 21 45 5
9 -14 65 17 65 35 0 18 21 20 37 4 18 -18 63 -2 74 27 7 21 14 25 32 19 60
-19 76 -17 100 9 23 24 28 26 85 20 60 -7 62 -6 71 20 12 30 46 34 111 15 55
-17 106 -5 114 26 6 24 7 24 94 17 48 -4 227 -6 397 -6z m270 -1519 c-1 -36
22 -42 81 -22 50 17 51 17 68 -17 13 -26 50 -35 71 -18 12 10 20 6 44 -19 29
-31 55 -39 66 -21 11 18 32 11 43 -16 9 -18 17 -24 30 -20 12 4 26 -1 37 -14
10 -11 29 -20 42 -20 13 0 26 -6 29 -14 3 -8 19 -18 36 -21 16 -4 38 -15 49
-26 10 -10 24 -16 32 -13 7 2 23 -7 36 -22 17 -19 26 -23 34 -15 15 15 37 14
37 -1 1 -7 14 -29 30 -48 23 -27 33 -31 42 -22 19 19 32 14 51 -21 10 -17 101
-115 202 -216 133 -132 185 -190 185 -207 0 -22 64 -83 103 -97 19 -7 22 -22
7 -32 -19 -11 -10 -35 16 -45 19 -8 24 -15 19 -29 -4 -13 1 -27 15 -41 12 -12
19 -28 16 -36 -3 -8 3 -23 14 -34 11 -11 20 -29 20 -39 0 -11 12 -28 26 -38
23 -17 25 -22 15 -41 -10 -18 -9 -23 4 -27 8 -3 22 -7 31 -10 12 -4 14 -11 9
-28 -14 -45 -11 -71 10 -75 30 -6 34 -21 21 -66 -15 -53 -10 -75 21 -87 24 -9
25 -12 17 -57 -5 -26 -8 -69 -9 -97 0 -42 3 -51 24 -61 l25 -13 -3 -168 c-2
-154 -4 -169 -22 -183 -27 -21 -34 -81 -19 -146 13 -55 13 -55 -14 -78 -29
-23 -34 -47 -21 -103 5 -21 4 -33 -3 -33 -26 0 -44 -33 -37 -68 5 -28 2 -37
-15 -49 -19 -13 -21 -22 -15 -59 5 -35 3 -45 -9 -49 -9 -3 -24 -7 -33 -10 -12
-4 -14 -8 -5 -17 19 -19 14 -48 -7 -48 -25 0 -37 -18 -22 -33 18 -18 13 -27
-19 -38 -31 -11 -38 -23 -20 -34 16 -10 12 -35 -7 -42 -33 -11 -71 -54 -66
-73 3 -12 -8 -30 -35 -54 -30 -27 -38 -42 -35 -59 3 -17 -2 -28 -22 -41 -14
-10 -51 -42 -82 -72 -46 -46 -53 -57 -42 -70 11 -13 3 -24 -48 -75 -34 -32
-71 -71 -83 -86 -19 -24 -24 -26 -41 -14 -19 11 -27 6 -83 -51 -34 -35 -65
-71 -69 -81 -6 -17 -9 -16 -37 4 l-30 23 0 130 c0 134 5 176 21 176 6 0 84 74
175 165 91 91 169 165 174 165 14 0 21 32 9 46 -12 15 -4 34 14 34 19 0 79 58
67 65 -18 11 -12 45 8 45 24 0 40 20 81 99 23 45 29 67 22 74 -18 18 -13 47 7
47 28 0 43 20 31 41 -7 14 -4 23 13 38 21 20 25 47 16 110 -2 19 2 26 22 31
24 6 25 9 22 76 -1 38 -5 84 -8 102 -4 28 -2 34 15 39 27 7 41 58 41 148 0 90
-7 112 -35 119 -21 5 -22 10 -19 73 2 38 6 87 10 110 6 36 3 45 -21 68 -20 21
-25 34 -20 52 7 30 -2 63 -18 63 -29 1 -38 16 -26 43 14 32 -1 77 -26 77 -11
0 -14 9 -13 32 3 28 -1 34 -20 36 -17 3 -22 9 -19 20 2 9 6 23 8 31 2 9 -5 17
-16 19 -30 6 -41 20 -27 34 19 19 14 34 -14 46 -18 9 -24 17 -19 31 6 21 -24
59 -63 80 -18 10 -20 15 -12 31 9 17 5 25 -22 51 -79 74 -208 202 -272 268
-48 51 -72 69 -79 62 -19 -19 -32 -12 -57 34 -25 46 -30 48 -72 30 -13 -5 -18
-3 -18 8 0 8 -13 29 -29 47 -21 25 -34 32 -50 27 -15 -4 -24 0 -28 11 -9 23
-25 33 -45 26 -10 -3 -22 4 -32 17 -14 21 -42 26 -90 18 -14 -3 -21 3 -26 21
-7 26 -21 29 -72 15 -22 -6 -29 -3 -35 11 -3 11 -11 22 -17 26 -16 11 -74 10
-96 -2 -16 -9 -22 -5 -35 19 l-15 30 -315 1 c-314 0 -315 0 -337 -22 -19 -19
-32 -22 -75 -20 -41 3 -55 0 -71 -16 -13 -13 -32 -20 -56 -19 -24 1 -43 -6
-59 -21 -15 -14 -30 -19 -44 -16 -18 5 -23 1 -29 -20 -6 -24 -10 -26 -40 -20
-32 6 -34 4 -34 -20 0 -19 -5 -26 -19 -26 -11 0 -23 5 -26 10 -11 18 -24 10
-27 -17 -3 -28 -15 -33 -50 -18 -13 5 -19 0 -24 -20 -6 -23 -11 -26 -34 -22
-21 5 -33 0 -54 -22 -14 -15 -26 -33 -26 -39 0 -7 -6 -15 -14 -18 -8 -3 -16
-14 -19 -25 -4 -15 -11 -18 -34 -13 -25 5 -39 -6 -147 -113 -106 -104 -120
-122 -119 -150 1 -18 -2 -33 -6 -33 -7 0 -28 -15 -83 -59 -24 -20 -29 -30 -24
-53 5 -24 2 -29 -20 -34 -23 -6 -25 -10 -20 -39 6 -30 4 -33 -25 -39 -31 -6
-31 -6 -14 -32 14 -22 15 -28 4 -35 -8 -5 -20 -7 -27 -4 -17 6 -28 -23 -13
-38 17 -17 13 -27 -14 -37 -16 -6 -25 -17 -25 -31 0 -13 -8 -31 -17 -41 -17
-19 -22 -73 -12 -123 3 -15 -2 -21 -18 -23 -26 -4 -39 -52 -29 -106 6 -29 3
-35 -14 -41 -19 -6 -20 -14 -20 -265 l0 -259 23 -3 c16 -2 21 -9 18 -23 -17
-97 -7 -165 24 -165 12 0 14 -8 9 -38 -6 -39 7 -63 38 -75 10 -3 10 -9 -1 -28
-12 -20 -11 -25 9 -41 14 -11 23 -32 25 -55 2 -21 12 -45 22 -53 10 -8 19 -26
20 -39 2 -26 46 -71 70 -71 16 0 17 -22 1 -39 -11 -10 -6 -18 22 -41 19 -16
41 -30 49 -30 9 0 12 -8 8 -27 -4 -24 13 -45 157 -189 145 -145 164 -162 189
-157 15 3 27 1 27 -4 0 -6 8 -19 18 -31 9 -11 22 -29 28 -39 10 -14 14 -16 25
-5 17 16 39 16 39 0 0 -7 14 -28 31 -46 25 -26 33 -30 50 -22 10 6 19 7 20 3
0 -4 1 -74 0 -155 0 -120 -3 -152 -17 -173 -21 -31 -34 -32 -34 -1 0 29 -24
41 -41 20 -13 -16 -39 -2 -39 21 0 20 -49 55 -76 55 -14 0 -25 8 -29 20 -6 17
-12 20 -41 14 -23 -4 -34 -2 -34 6 0 24 -52 81 -70 75 -22 -7 -440 408 -440
437 0 22 -76 98 -97 98 -16 0 -17 32 -1 48 8 8 5 14 -15 23 -20 9 -27 20 -27
40 0 15 -7 32 -15 37 -9 4 -18 21 -21 38 -3 16 -11 34 -19 40 -8 6 -15 19 -15
28 0 9 -9 25 -20 36 -11 11 -19 30 -17 42 1 15 -6 26 -26 36 -22 11 -25 16
-17 32 19 35 12 69 -15 76 -26 6 -33 32 -14 51 6 6 9 21 7 34 -2 18 -10 25
-32 27 -27 3 -28 5 -21 40 3 20 7 59 8 86 2 46 0 50 -23 56 -24 6 -25 10 -27
79 -2 46 3 85 12 108 17 41 20 145 4 174 -6 11 -13 54 -15 95 -5 72 -4 74 20
85 33 16 43 64 26 134 -15 61 -9 85 20 85 28 0 33 20 16 62 -16 38 -8 58 26
58 21 0 24 27 6 65 -13 29 -8 38 25 40 22 2 25 15 12 47 -5 13 -1 20 11 24 36
13 44 25 33 45 -8 16 -5 21 16 29 23 9 26 14 20 40 -5 23 -3 30 8 30 25 0 42
28 27 45 -13 16 -6 35 14 35 22 0 66 54 60 75 -3 15 9 31 51 65 41 33 55 52
55 71 0 20 32 58 137 163 78 78 143 136 152 134 26 -4 53 17 90 66 27 35 39
45 54 40 20 -6 77 39 77 62 0 19 20 28 33 15 17 -17 31 -13 42 12 6 12 17 21
24 19 23 -5 51 9 51 24 0 11 8 14 27 12 22 -2 30 3 41 25 11 22 16 25 32 17
29 -16 40 -12 40 14 0 27 20 39 41 25 28 -18 59 -10 69 17 9 23 14 25 38 18
15 -4 38 -8 52 -8 20 -1 24 3 22 22 -4 31 14 35 84 19 73 -16 92 -13 100 20 7
25 7 25 78 18 103 -11 451 -9 521 2 82 14 90 12 90 -20z"/>
</g>
</svg>
